# AST/ASF file generated using VICON BodyLanguage
# -----------------------------------------------
:version 1.10
:name VICON
:units
  mass 1.0
  length 0.45
  angle deg
:documentation
   .ast/.asf automatically generated from VICON data using
   VICON BodyBuilder and BodyLanguage model FoxedUp or BRILLIANT.MOD
:root
   order TX TY TZ RX RY RZ
   axis XYZ
   position 0 0 0  
   orientation 0 0 0 
:bonedata
  begin
     id 1 
     name lhipjoint
     direction 0.682418 -0.694059 0.22932 
     length 2.25561 
     axis 0 0 0  XYZ
  end
  begin
     id 2 
     name lfemur
     direction 0.34202 -0.939693 0  
     length 6.96448  
     axis 0 0 20  XYZ
    dof rx ry rz
    limits (-160.0 20.0)
           (-70.0 70.0)
           (-60.0 70.0)
  end
  begin
     id 3 
     name ltibia
     direction 0.34202 -0.939693 0   
     length 6.88553   
     axis 0 0 20   XYZ
    dof rx
    limits (-10.0 170.0)
  end
  begin
     id 4 
     name lfoot
     direction 0.0723587 -0.198804 0.977364   
     length 1.88518   
     axis -90 7.62852e-016 20   XYZ
    dof rx rz
    limits (-45.0 90.0)
           (-70.0 20.0)
  end
  begin
     id 5 
     name ltoes
     direction 1.53558e-011 -4.21962e-011 1   
     length 0.952124   
     axis -90 7.62852e-016 20   XYZ
    dof rx
    limits (-90.0 20.0)
  end
  begin
     id 6 
     name rhipjoint
     direction -0.657603 -0.71533 0.236348   
     length 2.18854  
     axis 0 0 0  XYZ 
  end
  begin
     id 7 
     name rfemur
     direction -0.34202 -0.939693 0   
     length 6.86686   
     axis 0 0 -20   XYZ
    dof rx ry rz
    limits (-160.0 20.0)
           (-70.0 70.0)
           (-70.0 60.0)
  end
  begin
     id 8 
     name rtibia
     direction -0.34202 -0.939693 0   
     length 6.59503   
     axis 0 0 -20   XYZ
    dof rx
    limits (-10.0 170.0)
 end
 begin
     id 9 
     name rfoot
     direction -0.101977 -0.280179 0.954516   
     length 1.93723  
     axis -90 -7.62852e-016 -20   XYZ
    dof rx rz
    limits (-45.0 90.0)
           (-20.0 70.0)
  end
  begin
     id 10 
     name rtoes
     direction -1.53564e-011 -4.21897e-011 1   
     length 0.970315   
     axis -90 -7.62852e-016 -20   XYZ
    dof rx
    limits (-90.0 20.0)
  end
  begin
     id 11 
     name lowerback
     direction -0.0339559 0.999421 -0.00235966   
     length 1.88543   
     axis 0 0 0   XYZ
    dof rx ry rz
    limits (-20.0 45.0)
           (-30.0 30.0)
           (-30.0 30.0)
  end
  begin
     id 12 
     name upperback
     direction 0.00401003 0.999739 0.0224689   
     length 1.8856   
     axis 0 0 0   XYZ
    dof rx ry rz
    limits (-20.0 45.0)
           (-30.0 30.0)
           (-30.0 30.0)
  end
  begin
     id 13 
     name thorax
     direction 0.0198619 0.999546 0.0226536   
     length 1.88352   
     axis 0 0 0   XYZ
    dof rx ry rz
    limits (-20.0 45.0)
           (-30.0 30.0)
           (-30.0 30.0)
  end
  begin
     id 14 
     name lowerneck
     direction -0.0461848 0.998632 0.0245198   
     length 1.34895   
     axis 0 0 0   XYZ
    dof rx ry rz
    limits (-20.0 45.0)
           (-30.0 30.0)
           (-30.0 30.0)
  end
  begin
     id 15 
     name upperneck
     direction -0.0180627 0.994724 -0.100984   
     length 1.35214   
     axis 0 0 0   XYZ
    dof rx ry rz
    limits (-20.0 45.0)
           (-30.0 30.0)
           (-30.0 30.0)
  end
  begin
     id 16
     name head
     direction -0.00374772 0.999293 -0.037403  
     length 1.3568  
     axis 0 0 0   XYZ
    dof rx ry rz
    limits (-20.0 45.0)
           (-30.0 30.0)
           (-30.0 30.0)
  end
  begin
     id 17 
     name lclavicle
     direction 0.971773 0.191119 0.138311  
     length 2.84954  
     axis 0 0 0   XYZ
    dof ry rz
    limits (-20.0 10.0)
           (0.0 20.0)
  end
  begin
     id 18 
     name lhumerus
     direction 1 -4.4897e-011 -2.43761e-027   
     length 4.40919   
     axis 180 -30 -90   XYZ
    dof rx ry rz
    limits (-60.0 90.0)
           (-90.0 90.0)
           (-90.0 90.0)
  end
  begin
     id 19
     name lradius
     direction 1 -4.4896e-011 -9.1621e-027   
     length 3.03857   
     axis 180 -30 -90   XYZ
    dof rx
    limits (-10.0 170.0)
  end
  begin
     id 20
     name lwrist
     direction 1 -4.4896e-011 -1.41363e-026   
     length 1.51928   
     axis 1.07133e-014 90 90   XYZ
    dof ry
    limits (-180.0 0.0)
 end
  begin
     id 21 
     name lhand
     direction 1 -4.48978e-011 -2.82725e-026   
     length 0.523208   
     axis 1.80403e-014 90 90   XYZ
    dof rx rz
    limits (-90.0 90.0)
           (-45.0 45.0)
  end
  begin
     id 22 
     name lfingers
     direction 1 -4.48977e-011 -5.6545e-026   
     length 0.421824   
     axis 3.60806e-014 90 90   XYZ
    dof rx
    limits (0.0 90.0)
  end
  begin
     id 23
     name lthumb
     direction 0.707107 -6.34962e-011 0.707107   
     length 0.605657   
     axis -90 45 2.85299e-015   XYZ
    dof rx rz
    limits (-45.0 45.0)
           (-45.0 45.0)
  end
  begin
     id 24 
     name rclavicle
     direction -0.957247 0.24311 0.156766   
     length 3.12406  
     axis 0 0 0   XYZ 
    dof ry rz
    limits (-10.0 20.0)
           (-20.0 0.0)
  end
  begin
     id 25 
     name rhumerus
     direction -1 -4.48964e-011 -1.70632e-027  
     length 4.61969   
     axis 180 30 90   XYZ
    dof rx ry rz
    limits (-90.0 60.0)
           (-90.0 90.0)
           (-90.0 90.0)
  end
  begin
     id 26 
     name rradius
     direction -1 -4.48966e-011 -6.60395e-027   
     length 3.09382   
     axis 180 30 90   XYZ
    dof rx
    limits (-10.0 170.0)
  end
  begin
     id 27 
     name rwrist
     direction -1 -4.48963e-011 -1.41363e-026   
     length 1.54691   
     axis 1.07133e-014 -90 -90   XYZ
    dof ry
    limits (-180.0 0.0)
  end
  begin
     id 28
     name rhand
     direction -1 -4.49013e-011 -2.82725e-026   
     length 0.500896   
     axis 1.80403e-014 -90 -90   XYZ
    dof rx rz
    limits (-90.0 90.0)
           (-45.0 45.0)
  end
  begin
     id 29
     name rfingers
     direction -1 -4.48902e-011 -5.6545e-026   
     length 0.403835   
     axis 3.60806e-014 -90 -90   XYZ
    dof rx
    limits (0.0 90.0)
  end
  begin
     id 30
     name rthumb
     direction -0.707107 -6.34953e-011 0.707107   
     length 0.579829   
     axis -90 -45 -2.85299e-015   XYZ
    dof rx rz
    limits (-45.0 45.0)
           (-45.0 45.0)
  end
:hierarchy
  begin
    root lhipjoint rhipjoint lowerback
    lhipjoint lfemur
    lfemur ltibia
    ltibia lfoot
    lfoot ltoes
    rhipjoint rfemur
    rfemur rtibia
    rtibia rfoot
    rfoot rtoes
    lowerback upperback
    upperback thorax
    thorax lowerneck lclavicle rclavicle
    lowerneck upperneck
    upperneck head
    lclavicle lhumerus
    lhumerus lradius
    lradius lwrist
    lwrist lhand lthumb
    lhand lfingers
    rclavicle rhumerus
    rhumerus rradius
    rradius rwrist
    rwrist rhand rthumb
    rhand rfingers
  end

#!OML:ASF E:\madness\Project 1\Capture day 1\Session 1\Female1.ASF
:FULLY-SPECIFIED
:DEGREES
349
root 32.2967 16.005 0.707767 -352.377 -85.1995 359.992
lowerback -2.49495 2.83785 -4.90977
upperback -1.70191 3.86335 0.660465
thorax -0.726585 1.97932 3.48377
lowerneck 8.35177 22.8265 12.8879
upperneck 2.38383 32.2474 -19.6895
head 4.70506 16.2253 -5.86789
rclavicle -1.80366e-014 -3.90115e-015
rhumerus -69.4597 10.1274 -69.8471
rradius 57.5687
rwrist -2.12147
rhand -6.46027 -46.7084
rfingers 7.12502
rthumb 19.3898 -75.7616
lclavicle -1.80366e-014 -3.90115e-015
lhumerus -54.2081 -40.4286 58.0592
lradius 92.6594
lwrist -7.3216
lhand -15.5531 -19.8305
lfingers 7.12502
lthumb 10.6312 9.88055
rfemur -17.5354 6.34954 22.2558
rtibia 29.7358
rfoot -19.2338 -20.4065
rtoes 4.3493
lfemur -25.1719 -10.0324 -13.661
ltibia 37.3317
lfoot -15.1304 0.822591
ltoes 1.23909
350
root 32.2931 16.0066 0.710809 -353.082 -85.2144 360.75
lowerback -2.53569 2.81434 -4.99504
upperback -1.68517 3.83619 0.656113
thorax -0.689465 1.96527 3.5296
lowerneck 8.46681 22.9305 12.9878
upperneck 2.21362 32.4125 -20.0483
head 4.7417 16.3168 -5.95697
rclavicle 2.43325e-014 -1.15295e-014
rhumerus -69.4058 10.1434 -69.8014
rradius 57.5078
rwrist -2.1601
rhand -6.215 -47.2028
rfingers 7.12502
rthumb 19.6257 -76.2322
lclavicle 2.43325e-014 -1.15295e-014
lhumerus -54.2977 -40.2948 58.0899
lradius 92.7623
lwrist -7.34718
lhand -15.6927 -19.7302
lfingers 7.12502
lthumb 10.4966 9.98771
rfemur -17.5811 6.42843 22.178
rtibia 29.7671
rfoot -19.3272 -20.5086
rtoes 4.3241
lfemur -25.0654 -10.144 -13.7421
ltibia 37.0276
lfoot -15.0588 1.06595
ltoes 0.81402
351
root 32.2912 16.0086 0.714974 -353.305 -85.2074 360.995
lowerback -2.51527 2.79554 -5.01986
upperback -1.6916 3.81034 0.656425
thorax -0.706692 1.95313 3.54225
lowerneck 8.65581 23.0023 13.2232
upperneck 2.12434 32.5675 -20.4429
head 4.8192 16.4052 -6.07039
rclavicle -3.72488e-014 6.55989e-015
rhumerus -69.4607 10.1648 -69.768
rradius 57.5141
rwrist -2.23586
rhand -6.31025 -47.3203
rfingers 7.12502
rthumb 19.5341 -76.3589
lclavicle -3.72488e-014 6.55989e-015
lhumerus -54.3742 -40.178 58.1439
lradius 92.8072
lwrist -7.44452
lhand -16.0048 -19.6013
lfingers 7.12502
lthumb 10.1955 10.1317
rfemur -17.6055 6.50831 22.1485
rtibia 29.8314
rfoot -19.4959 -20.5852
rtoes 4.53645
lfemur -24.9138 -10.2868 -13.8015
ltibia 36.7682
lfoot -14.9949 1.44022
ltoes 0.112598
352
root 32.2912 16.0076 0.720082 -353.853 -85.2385 361.581
lowerback -2.49295 2.78843 -5.04345
upperback -1.70385 3.79967 0.645312
thorax -0.731604 1.94878 3.54222
lowerneck 8.67765 23.1116 13.4104
upperneck 2.26005 32.783 -20.704
head 4.97085 16.5029 -6.10316
rclavicle -7.1578e-015 8.19987e-016
rhumerus -69.5072 10.1838 -69.7161
rradius 57.5282
rwrist -2.23393
rhand -6.39843 -47.133
rfingers 7.12502
rthumb 19.4493 -76.1803
lclavicle -7.1578e-015 8.19987e-016
lhumerus -54.4856 -40.0921 58.2364
lradius 92.8315
lwrist -7.45538
lhand -16.4224 -19.6461
lfingers 7.12502
lthumb 9.79262 10.1062
rfemur -17.6555 6.59949 22.0743
rtibia 29.8651
rfoot -19.5173 -20.65
rtoes 4.76465
lfemur -24.7717 -10.4594 -13.8931
ltibia 36.5511
lfoot -14.8577 1.93898
ltoes -0.828338
353
root 32.2924 16.0074 0.72449 -354.369 -85.2729 362.121
lowerback -2.36248 2.83134 -5.01661
upperback -1.77257 3.84697 0.582955
thorax -0.873941 1.97645 3.45343
lowerneck 8.80631 23.1175 13.6159
upperneck 2.32972 32.8476 -20.8876
head 5.05023 16.5382 -6.16295
rclavicle -3.8996e-015 -1.26725e-014
rhumerus -69.6433 10.0634 -69.6826
rradius 57.4877
rwrist -2.15047
rhand -6.37948 -47.1832
rfingers 7.12502
rthumb 19.4675 -76.2286
lclavicle -3.8996e-015 -1.26725e-014
lhumerus -54.6082 -40.2404 58.302
lradius 92.8805
lwrist -7.40368
lhand -16.7586 -19.73
lfingers 7.12502
lthumb 9.46829 10.0373
rfemur -17.6866 6.74853 22.0015
rtibia 29.8621
rfoot -19.4609 -20.7581
rtoes 5.07448
lfemur -24.6553 -10.6458 -13.961
ltibia 36.3679
lfoot -14.755 2.41173
ltoes -1.79185
354
root 32.2917 16.0133 0.73039 -354.191 -85.3449 361.983
lowerback -2.2758 2.88831 -4.93063
upperback -1.84554 3.91428 0.539796
thorax -0.995142 2.01297 3.35366
lowerneck 8.9308 23.0492 13.6683
upperneck 2.30872 32.7714 -20.9968
head 5.04053 16.509 -6.2251
rclavicle 5.90686e-015 1.48343e-014
rhumerus -69.7886 10.003 -69.6765
rradius 57.4296
rwrist -2.11813
rhand -6.35277 -47.1902
rfingers 7.12502
rthumb 19.4932 -76.233
lclavicle 5.90686e-015 1.48343e-014
lhumerus -54.6892 -40.3914 58.3628
lradius 92.8873
lwrist -7.35495
lhand -16.9187 -19.8816
lfingers 7.12502
lthumb 9.3138 9.89261
rfemur -17.7269 6.90074 21.9767
rtibia 29.8476
rfoot -19.48 -20.8002
rtoes 5.35055
lfemur -24.5881 -10.7214 -13.9708
ltibia 36.222
lfoot -14.8803 2.66972
ltoes -2.31434
355
root 32.2927 16.0195 0.74052 -353.803 -85.39 361.693
lowerback -2.31119 2.90664 -4.77666
upperback -1.88335 3.93639 0.489668
thorax -1.0019 2.02239 3.21718
lowerneck 8.80661 23.0462 13.5996
upperneck 2.33982 32.7561 -20.9985
head 5.05586 16.4911 -6.20589
rclavicle 1.55747e-014 -1.49089e-016
rhumerus -69.8384 9.99346 -69.6996
rradius 57.3768
rwrist -2.10327
rhand -6.3155 -47.0462
rfingers 7.12502
rthumb 19.529 -76.0854
lclavicle 1.55747e-014 -1.49089e-016
lhumerus -54.7474 -40.4089 58.3504
lradius 92.9439
lwrist -7.38175
lhand -16.8803 -20.144
lfingers 7.12502
lthumb 9.35084 9.62861
rfemur -17.8556 6.9356 21.9383
rtibia 29.8467
rfoot -19.4407 -20.7919
rtoes 4.997
lfemur -24.6352 -10.7725 -13.9604
ltibia 36.0833
lfoot -14.9763 2.7485
ltoes -2.33734
356
root 32.299 16.0172 0.748545 -353.361 -85.3825 361.327
lowerback -2.3219 2.88573 -4.67244
upperback -1.88321 3.9073 0.469696
thorax -0.984307 2.00599 3.1393
lowerneck 8.68673 23.013 13.6524
upperneck 2.53901 32.741 -21.0222
head 5.14598 16.4666 -6.19236
rclavicle -4.30318e-014 -7.95139e-016
rhumerus -69.8008 10.0021 -69.7006
rradius 57.3667
rwrist -2.14609
rhand -6.40505 -46.9491
rfingers 7.12502
rthumb 19.4429 -75.997
lclavicle -4.30318e-014 -7.95139e-016
lhumerus -54.8381 -40.3026 58.347
lradius 93.0341
lwrist -7.45592
lhand -16.8229 -20.55
lfingers 7.12502
lthumb 9.40627 9.2201
rfemur -17.995 6.90446 21.9251
rtibia 29.8787
rfoot -19.2965 -20.8012
rtoes 4.2495
lfemur -24.6673 -10.8046 -13.9344
ltibia 35.8845
lfoot -14.9349 2.74335
ltoes -2.10931
357
root 32.3028 16.0093 0.752101 -353.343 -85.4647 361.348
lowerback -2.37473 2.84576 -4.75157
upperback -1.83736 3.85977 0.524416
thorax -0.912582 1.98127 3.24413
lowerneck 8.44326 22.9551 13.6335
upperneck 2.86048 32.6914 -20.9931
head 5.26604 16.4113 -6.1458
rclavicle -2.69602e-015 7.1314e-015
rhumerus -69.6162 10.1791 -69.6858
rradius 57.3193
rwrist -2.29683
rhand -6.63645 -46.8905
rfingers 7.12502
rthumb 19.2204 -75.9607
lclavicle -2.69602e-015 7.1314e-015
lhumerus -54.9954 -40.0447 58.4778
lradius 93.0645
lwrist -7.46851
lhand -16.7611 -20.3412
lfingers 7.12502
lthumb 9.46585 9.4262
rfemur -18.0972 6.96663 21.8947
rtibia 29.9383
rfoot -19.2141 -20.7961
rtoes 3.83298
lfemur -24.581 -10.7333 -13.9544
ltibia 35.6114
lfoot -14.9021 2.86487
ltoes -2.39239
358
root 32.3026 16.009 0.755499 -353.56 -85.73 361.689
lowerback -2.506 2.84449 -4.87148
upperback -1.84923 3.86617 0.552094
thorax -0.862328 1.98482 3.34646
lowerneck 8.18155 22.8301 13.6389
upperneck 3.23278 32.5468 -20.8417
head 5.37005 16.3084 -6.08384
rclavicle -2.65269e-014 3.23025e-015
rhumerus -69.4152 10.3747 -69.7032
rradius 57.1989
rwrist -2.35848
rhand -6.84898 -46.7885
rfingers 7.12502
rthumb 19.0161 -75.879
lclavicle -2.65269e-014 3.23025e-015
lhumerus -55.2469 -39.8156 58.6192
lradius 93.1314
lwrist -7.54128
lhand -16.4367 -20.1361
lfingers 7.12502
lthumb 9.77883 9.61681
rfemur -18.2802 7.18005 21.7992
rtibia 29.9975
rfoot -19.1748 -20.7146
rtoes 3.73796
lfemur -24.4994 -10.7507 -13.9865
ltibia 35.2928
lfoot -14.8494 3.50167
ltoes -3.94754
359
root 32.3024 16.0158 0.762473 -354.187 -85.7288 362.336
lowerback -2.4455 2.77013 -4.91605
upperback -1.86841 3.76412 0.563111
thorax -0.910101 1.93587 3.37823
lowerneck 7.75834 22.7087 13.4478
upperneck 3.6728 32.3608 -20.4196
head 5.43289 16.1743 -5.92471
rclavicle -5.20272e-014 1.7344e-014
rhumerus -69.2761 10.5534 -69.699
rradius 57.1444
rwrist -2.33965
rhand -6.86662 -46.7998
rfingers 7.12502
rthumb 18.9991 -75.8919
lclavicle -5.20272e-014 1.7344e-014
lhumerus -55.5267 -39.6441 58.7748
lradius 93.1687
lwrist -7.63258
lhand -16.1473 -19.7395
lfingers 7.12502
lthumb 10.058 10.0002
rfemur -18.2888 7.2746 21.7071
rtibia 30.0209
rfoot -19.2525 -20.7238
rtoes 4.22086
lfemur -24.3298 -11.1025 -14.0394
ltibia 34.9586
lfoot -14.8373 4.07639
ltoes -4.92076
360
root 32.3034 16.0199 0.769328 -354.995 -85.8308 363.195
lowerback -2.44573 2.74518 -4.97779
upperback -1.88697 3.73122 0.569714
thorax -0.930619 1.92093 3.41873
lowerneck 7.12652 22.5652 13.0537
upperneck 4.16883 32.1044 -19.8169
head 5.47126 15.9924 -5.68942
rclavicle -1.23448e-014 -7.72775e-015
rhumerus -69.1505 10.7324 -69.682
rradius 57.0868
rwrist -2.28381
rhand -6.73994 -46.896
rfingers 7.12502
rthumb 19.1209 -75.9761
lclavicle -1.23448e-014 -7.72775e-015
lhumerus -55.684 -39.4967 58.9353
lradius 93.0674
lwrist -7.60542
lhand -16.1589 -19.4646
lfingers 7.12502
lthumb 10.0469 10.2756
rfemur -18.3456 7.29316 21.593
rtibia 30.0008
rfoot -19.1524 -20.6512
rtoes 4.03447
lfemur -24.2014 -11.2373 -14.131
ltibia 34.6695
lfoot -14.8275 4.27982
ltoes -4.57162
361
root 32.3026 16.0208 0.77536 -356.005 -85.8518 364.225
lowerback -2.45419 2.68732 -5.07396
upperback -1.90237 3.65545 0.568425
thorax -0.940757 1.88455 3.47078
lowerneck 6.69204 22.3302 12.8422
upperneck 4.46241 31.7461 -19.4743
head 5.47788 15.782 -5.58386
rclavicle -4.8255e-014 1.25234e-014
rhumerus -69.023 10.9499 -69.7108
rradius 57.0059
rwrist -2.13127
rhand -6.31884 -47.104
rfingers 7.12502
rthumb 19.5258 -76.1435
lclavicle -4.8255e-014 1.25234e-014
lhumerus -55.9381 -39.3745 59.0896
lradius 93.0444
lwrist -7.34563
lhand -16.134 -19.3018
lfingers 7.12502
lthumb 10.0709 10.4372
rfemur -18.3555 7.24279 21.4847
rtibia 29.9761
rfoot -19.0699 -20.6165
rtoes 3.61219
lfemur -24.104 -11.3668 -14.2288
ltibia 34.4904
lfoot -14.8212 4.40827
ltoes -3.98445
362
root 32.3005 16.0197 0.780252 -356.506 -85.8276 364.765
lowerback -2.53549 2.55121 -5.20265
upperback -1.88753 3.48119 0.615072
thorax -0.873978 1.79716 3.59487
lowerneck 6.98993 21.8283 12.9375
upperneck 4.31406 31.0612 -19.5763
head 5.30799 15.4763 -5.78197
rclavicle 1.33838e-014 -9.88954e-015
rhumerus -68.7643 11.3368 -69.7779
rradius 56.9053
rwrist -1.96837
rhand -5.8241 -47.2781
rfingers 7.12502
rthumb 20.0014 -76.2687
lclavicle 1.33838e-014 -9.88954e-015
lhumerus -56.3872 -39.0804 59.2838
lradius 93.1527
lwrist -7.07094
lhand -15.7901 -18.7785
lfingers 7.12502
lthumb 10.4027 10.9441
rfemur -18.3995 7.30171 21.4116
rtibia 29.9698
rfoot -19.0122 -20.7258
rtoes 3.29604
lfemur -24.0663 -11.4721 -14.2834
ltibia 34.4031
lfoot -14.81 4.60304
ltoes -3.97112
